<svg id="Camada_1" data-name="Camada 1" xmlns="http://www.w3.org/2000/svg" viewBox="0 0 917.02 217.08"><path d="M245.1,208.1,178.35,412.25c-5.23,16-22.69,16-27.92,0L83.68,208.1h41.2v.35l39.51,120.76L203.9,208.1Z" transform="translate(-83.68 -208.1)" style="fill:#38a6b2"/><path d="M432.32,240a107.6,107.6,0,0,1,31.32,76.32c0,29.41-11.09,56.62-31.32,76.95a103.39,103.39,0,0,1-149.38,0c-20.48-20.33-31.32-47.54-31.32-76.95,0-28.77,10.84-56,31.32-76.32a103.39,103.39,0,0,1,149.38,0Zm-74.69,7.2c-37.35,0-67.7,31-67.7,69.12,0,38.79,30.35,69.75,67.7,69.75s67.46-31,67.46-69.75C425.09,278.16,395,247.2,357.63,247.2Z" transform="translate(-83.68 -208.1)" style="fill:#38a6b2"/><path d="M628.2,247.2H566.77v178H528.22v-178H466.78V208.1H628.2Z" transform="translate(-83.68 -208.1)" style="fill:#38a6b2"/><path d="M806.52,247.2H696.39v53.64H747c7.17,0,13,7.55,13,16.87v6c0,9.31-5.82,16.86-13,16.86H696.39v45.51H806.52c7.18,0,13,7.56,13,16.87v5.37c0,9.31-5.81,16.86-13,16.86H658.09V208.1H806.52c7.18,0,13,7.55,13,16.86v5.37C819.51,239.64,813.7,247.2,806.52,247.2Z" transform="translate(-83.68 -208.1)" style="fill:#38a6b2"/><path d="M1000.7,208.1,941,348.23l-1.69,4.69v72.25H900.71v-73.5L839.27,208.1h42.17v.31L920,299.12l39-91Z" transform="translate(-83.68 -208.1)" style="fill:#38a6b2"/><ellipse cx="273.83" cy="108.54" rx="50.97" ry="51.71" style="fill:#d7dbe3"/></svg>